# xmcd
#
# Track frame offsets: 
#        150
#        11403
#        35381
#        72070
#        97275
#        129568
#        167277
#
# Disc length: 2495 seconds
#
# Revision: 0
# Processed by: cddbd v1.5.2PL0 Copyright (c) Steve Scherf et al.
# Submitted via: ExactAudioCopyFreeDBPlugin 1.0
#
DISCID=5009bd07
DTITLE=Nubiyan Twist - Nubiyan Twist
DYEAR=2015
DGENRE=Afrobeat
TTITLE0=Turu
TTITLE1=Work House
TTITLE2=Straight Lines
TTITLE3=Hypnotised
TTITLE4=Figure Numatic
TTITLE5=Shake Me Down
TTITLE6=Hypnotised (Chief Rockers Remix)
EXTD=
EXTT0=
EXTT1=
EXTT2=
EXTT3=
EXTT4=
EXTT5=
EXTT6=
PLAYORDER=
